/* XPM */
static char * blue_stone18_xpm[] = {
"18 18 204 2",
"  	c #0E0E83",
". 	c #000091",
"+ 	c #000093",
"@ 	c #000086",
"# 	c #1A1A6E",
"$ 	c #0000A7",
"% 	c #0000A1",
"& 	c #00009F",
"* 	c #00009A",
"= 	c #00009B",
"- 	c #0000A4",
"; 	c #13137B",
"> 	c #0D0D95",
", 	c #00009C",
"' 	c #0B0B80",
") 	c #000082",
"! 	c #0000AC",
"~ 	c #00008B",
"{ 	c #000097",
"] 	c #00007A",
"^ 	c #000066",
"/ 	c #0D0D57",
"( 	c #000096",
"_ 	c #000089",
": 	c #00008A",
"< 	c #10104F",
"[ 	c #0D0D68",
"} 	c #121245",
"| 	c #09099C",
"1 	c #000081",
"2 	c #000090",
"3 	c #00007F",
"4 	c #000075",
"5 	c #000067",
"6 	c #0D0D5C",
"7 	c #0000B9",
"8 	c #0000A8",
"9 	c #0000A6",
"0 	c #0D0D6B",
"a 	c #040458",
"b 	c #090996",
"c 	c #000098",
"d 	c #00005E",
"e 	c #00007C",
"f 	c #000072",
"g 	c #00006A",
"h 	c #00005C",
"i 	c #000052",
"j 	c #0000B3",
"k 	c #000085",
"l 	c #00006B",
"m 	c #0D0D66",
"n 	c #040452",
"o 	c #09098D",
"p 	c #00006C",
"q 	c #000051",
"r 	c #000076",
"s 	c #00006D",
"t 	c #070775",
"u 	c #000099",
"v 	c #000095",
"w 	c #00007B",
"x 	c #00005A",
"y 	c #0D0D63",
"z 	c #12126D",
"A 	c #0D0D6D",
"B 	c #0D0D87",
"C 	c #0000A3",
"D 	c #0000A2",
"E 	c #000077",
"F 	c #00008E",
"G 	c #00006E",
"H 	c #00004D",
"I 	c #0D0D5A",
"J 	c #000064",
"K 	c #04043B",
"L 	c #080882",
"M 	c #010187",
"N 	c #0000B1",
"O 	c #000087",
"P 	c #0A0A47",
"Q 	c #0E0E84",
"R 	c #0D0D88",
"S 	c #0D0D85",
"T 	c #0D0D82",
"U 	c #0F0F7D",
"V 	c #13135E",
"W 	c #0000AA",
"X 	c #10107E",
"Y 	c #00009E",
"Z 	c #03035E",
"` 	c #06064F",
" .	c #0F0F36",
"..	c #0101B0",
"+.	c #0000C8",
"@.	c #0000C5",
"#.	c #000094",
"$.	c #0D0D62",
"%.	c #0000BA",
"&.	c #000092",
"*.	c #0D0D7E",
"=.	c #0000B0",
"-.	c #00005D",
";.	c #0E0E5B",
">.	c #07079A",
",.	c #131365",
"'.	c #0000A5",
").	c #0000A0",
"!.	c #000079",
"~.	c #0D0D60",
"{.	c #0D0D7A",
"].	c #000062",
"^.	c #000060",
"/.	c #0D0D5E",
"(.	c #0C0C4B",
"_.	c #0101A6",
":.	c #000073",
"<.	c #000061",
"[.	c #000054",
"}.	c #0D0D5D",
"|.	c #0000AE",
"1.	c #00008F",
"2.	c #000074",
"3.	c #00005B",
"4.	c #0D0D5F",
"5.	c #0E0E6E",
"6.	c #0D0D61",
"7.	c #0D0D45",
"8.	c #0D0D4C",
"9.	c #0D0D3C",
"0.	c #0D0D37",
"a.	c #121259",
"b.	c #0F0F5F",
"c.	c #05056D",
"d.	c #000071",
"e.	c #121264",
"f.	c #0C0C47",
"g.	c #0202B3",
"h.	c #101067",
"i.	c #000070",
"j.	c #0D0D5B",
"k.	c #0D0D9B",
"l.	c #0000C1",
"m.	c #0000AD",
"n.	c #0E0E70",
"o.	c #03036F",
"p.	c #0E0E3A",
"q.	c #0101B3",
"r.	c #0000C4",
"s.	c #0D0D59",
"t.	c #000057",
"u.	c #00005F",
"v.	c #0D0D9E",
"w.	c #0F0F72",
"x.	c #0B0B97",
"y.	c #14145F",
"z.	c #0101AE",
"A.	c #0000B2",
"B.	c #00008D",
"C.	c #000058",
"D.	c #0F0F49",
"E.	c #0D0D80",
"F.	c #0D0D86",
"G.	c #0F0F88",
"H.	c #0A0A73",
"I.	c #0D0DBE",
"J.	c #0D0D77",
"K.	c #0C0C5F",
"L.	c #0101AB",
"M.	c #0000A9",
"N.	c #000065",
"O.	c #0000B7",
"P.	c #0000B8",
"Q.	c #0000AB",
"R.	c #0D0D69",
"S.	c #0C0C56",
"T.	c #0101A8",
"U.	c #00006F",
"V.	c #000053",
"W.	c #0D0D91",
"X.	c #0D0D67",
"Y.	c #0101A5",
"Z.	c #00004B",
"`.	c #0D0D64",
" +	c #000084",
".+	c #000056",
"++	c #313176",
"@+	c #2C2C73",
"#+	c #2C2C6B",
"$+	c #2C2C6E",
"%+	c #343460",
"&+	c #2C2C78",
"*+	c #343458",
"=+	c #2D2D92",
"-+	c #2C2C80",
";+	c #2C2C6F",
">+	c #2C2C66",
",+	c #2C2C6C",
"'+	c #2C2C65",
")+	c #343468",
"!+	c #2C2C89",
"~+	c #2C2C79",
"{+	c #2C2C71",
"]+	c #29295D",
"  . + . . @ # $ % + & * = - ; > , ' ",
") ! ~ { ] ^ / ( _ @ : ~ < [ } | & ^ ",
"1 * 2 3 4 5 6 7 8 9 + : 0 + a b c d ",
"e ) f g h i 6 j % % k l m _ n o p q ",
": @ 3 r s 3 t ! u v w x y v n z A B ",
"- C : 1 2 D E & F G d H I J K L M N ",
", * @ p k O P Q R S S T U V W { X Y ",
"= C @ s Z `  ...+.@.- #.) $.%.&.*.=.",
"+ v l -.;.>.,...'.).{ !.5 ~.=.&.{.& ",
"+ e ].^./.Y (._., 3 :.<.[.}.|.k {.1.",
") 2.3.q 4.= (.5.6.7.8.9.0.a.- 2.{.2 ",
"b.c.:.d.e.. f.g.j |.Y c u h.W i.j.p ",
"k.l.=.m.n.o.p.q.r.=.) ] e s.1 t./.u.",
"v.8 % D w.x.y.z.$ A.B.s C.D.E.F.G.H.",
"k.I.8 _ J.C K.L.* M.* N.x ~.O.P.c p ",
"k.Q.( E R.'.S.T., ) U.@ u.4.M.* E V.",
"W.: e 3 X.&.f.Y.).k <.i Z.`.Q.%  +.+",
"++@+#+$+%+&+*+=+-+;+>+,+'+)+!+~+{+]+"};
