/* XPM */
static char * Wall_windowx2_xpm[] = {
"64 64 44 1",
" 	c #6D7478",
".	c #505558",
"+	c #5D6164",
"@	c #878F94",
"#	c #798186",
"$	c #777E82",
"%	c #838C91",
"&	c #889195",
"*	c #767D81",
"=	c #858D91",
"-	c #7E868B",
";	c #80888D",
">	c #7B8387",
",	c #565B5D",
"'	c #686E71",
")	c #656A6C",
"!	c #8D9599",
"~	c #8C9599",
"{	c #8B9498",
"]	c #676D70",
"^	c #616669",
"/	c #656B6F",
"(	c #676D71",
"_	c #62686C",
":	c #525759",
"<	c #82898D",
"[	c #4F5457",
"}	c #867E77",
"|	c #140A0F",
"1	c #706961",
"2	c #5A5550",
"3	c #272225",
"4	c #342E34",
"5	c #F6CA9F",
"6	c #514952",
"7	c #433F45",
"8	c #BF6F4A",
"9	c #848B8F",
"0	c #EDAB50",
"a	c #4A4A5A",
"b	c #65657A",
"c	c #565668",
"d	c #453F42",
"e	c #51494E",
"   .                 .             .                 .          ",
"..............++....+++++++++.................++....+++++++++...",
"@@@@@@@#+$%&&@@*@@@@@@@@@@@+@%=@@@@@@@@#+$%&&@@*@@@@@@@@@@@+@%=@",
"########+*--;;;**##########+*###########+*--;;;**##########+*###",
"        + >****##########  .            + >****##########  .    ",
"        +                  .            +                  .    ",
"++++++,,,++++++++'''.....++....+++++++,,,++++++++'''.....++....+",
"%%)###########>!!!!!!!!!~!!!~~{&%%)###########>!!!!!!!!!~!!!~~{&",
"##]############>>>>!!!!###########]############>>>>!!!!#########",
"##) #>>>>>>**** ##############>>##) #>>>>>>**** ##############>>",
"  +              ##########       +              ##########     ",
"  ^                               ^                             ",
"..++++++++....+....,,,,,,,........++++++++....+....,,,,,,,......",
"###############/((((___     ,##################/((((___     ,###",
"############################:###############################:###",
" ######        #############:    ######        #############:   ",
"                    ####    :                       ####    :   ",
"                            :                               :   ",
"............................+++.............................+++.",
"===============.*=========<<<<<.===============.*=========<<<<<.",
"#############==.###############.#############==.###############.",
" ##############.  ###########  . ##############.  ###########  .",
"              #.               .              #.               .",
",,,,,:[[[::+..+.+++++++......+++,,,,,:[[[::+..+.+++++++......+++",
"========.}}}}}}}}}}}}}}}}}|==========}}}}}}}}}}}}}}}}}|+========",
"########.=1}11111111111}1|############1}11111111111}1|#.########",
"     #22222234444444443222222|#   22222234444444443222222|##### ",
"      25555236677777663255552|    25555236677777663255552|      ",
"..++..28888236333333363288882|....28888236333333363288882|......",
"999.99200002373ab3ab373200002|9999200002373ab3ab373200002|999999",
"##*.##288882373cc3cc373288882|####288882373cc3cc373288882|######",
"** . *200002373cc3cc373200002|#***200002373cc3cc373200002|#####*",
"   .  288882373bc3bc373288882|    288882373bc3bc373288882|      ",
"......200002373cc3cc363200002|....200002373cc3cc363200002|+++...",
"@@@@@@28888237733333763288882|=@@@28888237733333763288882|@+@%=@",
"######200002373ab3ab363200002|####200002373ab3ab363200002|#+*###",
"      288882363cc3cc363288882|    288882363cc3cc363288882| .    ",
"      200002363bc3bc363200002|    200002363bc3bc363200002| .    ",
"++++++288882363bc3bc363288882|.+++288882363bc3bc363288882|+....+",
"%%)###200002363cc3cc373200002|{&%%200002363cc3cc373200002|!!~~{&",
"##]###28888236733333773288882|####28888236733333773288882|######",
"##) #>200002363ab3ab373200002|>>##200002363ab3ab373200002|####>>",
"  +   288882373bc3bc373288882|    288882373bc3bc373288882|#     ",
"  ^   200002373bc3bc373200002|    200002373bc3bc373200002|      ",
"..++++288882373cc3cc373288882|....288882373cc3cc373288882|......",
"######20000237333333363200002|####20000237333333363200002|  ,###",
"######2dddd2367777776632dddd2|####2dddd2367777776632dddd2|##:###",
" ######     333333333333|###:    ###### 333333333333|#######:   ",
"          1eeeeeeeeeeeee1|  :         1eeeeeeeeeeeee1|##    :   ",
"         22112221111221122| :        22112221111221122|     :   ",
"..........1111111111111111|.+++.......1111111111111111|.....+++.",
"===============.*=========<<<<<.===============.*=========<<<<<.",
"#############==.###############.#############==.###############.",
" ##############.  ###########  . ##############.  ###########  .",
"              #.               .              #.               .",
",,,,,:[[[::+..+.+++++++......+++,,,,,:[[[::+..+.+++++++......+++",
"========.=##<<*========+================.=##<<*========+========",
"########.==###<####==##.################.==###<####==##.########",
"     #  .***** **######. ######      #  .***** **######. ###### ",
"        .      ********.                .      ********.        ",
"..++...........+++....+...........++...........+++....+.........",
"999.99999999999*****/,9999999999999.99999999999*****/,9999999999",
"##*.###########*#####.############*.###########*#####.##########",
"** . ********* ######. ########*** . ********* ######. ########*"};
