/* XPM */
static char * Wall_door_xpm[] = {
"64 64 36 1",
" 	c #6D7478",
".	c #505558",
"+	c #0F0806",
"@	c #5D6164",
"#	c #613A36",
"$	c #85504C",
"%	c #878F94",
"&	c #798186",
"*	c #777E82",
"=	c #838C91",
"-	c #889195",
";	c #767D81",
">	c #858D91",
",	c #7E868B",
"'	c #80888D",
")	c #7B8387",
"!	c #3C3C49",
"~	c #464654",
"{	c #525263",
"]	c #565B5D",
"^	c #65657A",
"/	c #565668",
"(	c #656A6C",
"_	c #8D9599",
":	c #8C9599",
"<	c #8B9498",
"[	c #676D70",
"}	c #4A4A5A",
"|	c #616669",
"1	c #525759",
"2	c #82898D",
"3	c #4F5457",
"4	c #F4F4F1",
"5	c #848B8F",
"6	c #99827E",
"7	c #8C765F",
"   .                 .+++++++++++++++++++            .          ",
"..............@@...+++###$$$$$$$$$$$$$$##+++..@@....@@@@@@@@@...",
"%%%%%%%&@*=--%%;+++#$$$$$$############$$$$$#+++;%%%%%%%%%%%@%=>%",
"&&&&&&&&@;,,''++##$$$#+++++++++#+++++++++#$$$$#++&&&&&&&&&&@;&&&",
"        @ );++##$$#+++!~{~~~{!+#+~~{!~{~~+++##$$#++&&&&&&  .    ",
"        @  +#$$$#++~{~~{~~~{~~+#+~{~~{~~~{~~+++#$$#+       .    ",
"@@@@@@]]]@+#$##++~~~{~~^///^/~+#+~^//^//~{~~{~~++#$#+....@@....@",
"==(&&&&&&+#$#++{~~~{//^///^//^+#+^//^///^//{~~~{~+#$#+__:___::<-",
"&&[&&&&&&+$#+~~{~~/^//^///^//^+#+^//^///^//^//~{~~+#$+_&&&&&&&&&",
"&&( &)))+#$+~~~~}/^////}/^////+#+////}/^////}/^/~~~+$#&&&&&&&&))",
"  @     +#$+~~~~}/^////++++++++#++++++++////}/^/~~~+$#&&&&&     ",
"  |     +#$+~~{}/^///++$$$$$$$$$$$$$$$$$++^}/^///{!+$#          ",
"..@@@@@@+#$+~/^}/^/++$$#+++++++++++++++#$$++/^///^!+$#]]]]......",
"&&&&&&&&+#$+/^//^/+$$#++##$$$$#+#$$$$$#++#$$++//^//+$#+     ]&&&",
"&&&&&&&&+#$+/^//^+$$#+#$$$++++#+#+++++$$#+#$$$+/^//+$#+&&&&&1&&&",
" &&&&&& +#$+++++++$#+$$+++###+#+#+####++$$+#$$++++++$#+&&&&&1   ",
"        +#$#$$$$$#$#+$+###$$#+#+#+##$$##+$+#$$#$$$$#$#+&    1   ",
"        +#$#######$#+$+#$$$$#+#+#+##$$$#+$+#$$######$#+     1   ",
"........+#$+++++++$#+$+##$$$#+#+#+##$$$#+$+#$$++++++$#+.....@@@.",
">>>>>>>>+#$+~~{!~+$#+$+######+#+#+######+$+#$$+~~{!+$#+>>>22222.",
"&&&&&&&&+#$+~~{!~+$#+$+######+#+#+######+$+#$$+~~{!+$#+&&&&&&&&.",
" &&&&&&&+#$+~{~~{+$#+$++++++++#+#++++++++$+#$$+~{~~+$#+&&&&&&  .",
"        +#$+~{~~{+$#+$$$$$$$$$#+#$$$$$$$$$+#$$+~{~~+$#+        .",
"]]]]]133+#$+{~~{~+$#+$+++++++$#+#$+++++++$+#$$+{~~{+$#+......@@@",
">>>>>>>>+#$+~{~~{+$#+$+#####+$#+#$+#####+$+#$$+~{~~+$#+@>>>>>>>>",
"&&&&&&&&+#$+{~~{~+$#+$+##$$#+$#+#$+##$$#+$+#$$+{~~{+$#+.&&&&&&&&",
"     &  +#$+~{~~{+$#+$+##$$#+$#+#$+##$$#+$+#$$+~{~~+$#+. &&&&&& ",
"        +#$+{~~{~+$#+$+##$$#+$#+#$+##$$#+$+#$$+{~~{+$#+.        ",
"..@@....+#$+~{~~{+$#+$+##$$#+$4+4$+##$$#+$+#$$+~{~~+$#+.........",
"555.5555+#$+{~~{~+$#+$+##$$#+$4+4$+##$$#+$+#$$+{~~{+$#+555555555",
"&&;.&&&&+#$+~{~~{+$#+$+##$$##$6+6$+##$$#+$+#$$+~{~~+$#+&&&&&&&&&",
";; . ;;;+#$+~{~~{+$#+$+##$$##$6+6$+##$$#+$+#$$+~{~~+$#+&&&&&&&&;",
"   .    +#$+~{~~{+$#+$+##$$##$6+6$+##$$#+$+#$$+~{~~+$#+         ",
"........+#$+~{~~{+$#+$+##$$##$6+6$+##$$#+$+#$$+~{~~+$#+@@@@@@...",
"%%%%%%%&+#$+{~~{~+$#+$+##$$#+$4+4$+##$$#+$+#$$+{~~{+$#+%%%%@%=>%",
"&&&&&&&&+#$+{~~{~+$#+$+##$$##$6+6$+##$$#+$+#$$+{~~{+$#+&&&&@;&&&",
"        +#$+~~~~!+$#+$+##$$#+$4+4$+##$$#+$+#$$+~~~~+$#+&&  .    ",
"        +#$+~~~~!+$#+$+##$$##$6+6$+##$$#+$+#$$+~~~~+$#+    .    ",
"@@@@@@]]+#$+~~{!~+$#+$+##$$#+$4+4$+##$$#+$+#$$+~~{!+$#+..@@....@",
"==(&&&&&+#$+~~{}/+$#+$+##$$##$6+6$+##$$#+$+#$$+/~{!+$#+_:___::<-",
"&&[&&&&&+#$+~^//^+$#+$+##$$#+$4+4$+##$$#+$+#$$+/^/~+$#+&&&&&&&&&",
"&&( &)))+#$+/^//^+$#+$+##$$##$6+6$+##$$#+$+#$$+/^//+$#+&&&&&&&))",
"  @     +#$+~^//^+$#+$+##$$#+$4+4$+##$$#+$+#$$+/^/~+$#+&&&&     ",
"  |     +#$+/^//^+$#+$+##$$##$6+6$+##$$#+$+#$$+/^//+$#+         ",
"..@@@@@@+#$+~^//^+$#+$+##$$#+$4+4$+##$$#+$+#$$+/^/~+$#+]]]......",
"&&&&&&&&+#$+/^//^+$#+$+##$$##$6+6$+##$$#+$+#$$+/^//+$#+     ]&&&",
"&&&&&&&&+#$+^//^/+$#+$+##$$#+$$+$$+##$$#+$+#$$+^//^+$#+&&&&&1&&&",
" &&&&&& +#$+^//^/+$#+$+##$$#+$4+4$+##$$#+$+#$$+^//^+$#+&&&&&1   ",
"        +#$+////}+$#+$+#####+$4+4$+#####+$+#$$+////+$#+&    1   ",
"        +#$+////}+$#+$+++++++$6+6$+++++++$+#$$+////+$#+     1   ",
"........+#$+//^}/+$#+$$$$$$$$$#+#$$$$$$$$$+#$$+//^}+$#+.....@@@.",
">>>>>>>>+#$+//^}/+$#+$+++++++$#+#$+++++++$+#$$+//^}+$#+>>>22222.",
"&&&&&&&&+#$+/^//^+$#+$+#####+$#+#$+#####+$+#$$+/^//+$#+&&&&&&&&.",
" &&&&&&&+#$+/^//^+$#+$+##$$#+$#+#$+##$$#+$+#$$+/^//+$#+&&&&&&  .",
"        +#$+^//^/+$#+$+##$$#+$#+#$+##$$#+$+#$$+^//^+$#+        .",
"]]]]]133+#$+^//^/+$#+$+#####+$#+#$+#####+$+#$$+^//^+$#+......@@@",
">>>>>>>>+#$+++++++$#+$+++++++$#+#$+++++++$+#$$++++++$#+@>>>>>>>>",
"&&&&&&&&+#$######$$#+$$$$$$$$$#+#$$$$$$$$$+#$$######$#+.&&&&&&&&",
"     &  +#$$$$$$$$$#+$$$$$$$$$#+#$$$$$$$$$+#$$$$$$$$$#+. &&&&&& ",
"        +###########+##########+##########+###########+.        ",
"..@@....++++++++++++++++++++++++++++++++++++++++++++++++........",
"555.555+77777777777777777777777777777777777777777777777$+5555555",
"&&;.&&&+$$$$$$$$$$$$$$$$$$$$$$$$$$$$$$$$$$$$$$$$$$$$$$$#+&&&&&&&",
";; . ;;++++++++++++++++++++++++++++++++++++++++++++++++++&&&&&&;"};
