/* XPM */
static char * Wall_pompier_xpm[] = {
"64 64 44 1",
" 	c #6D7478",
".	c #505558",
"+	c #5D6164",
"@	c #878F94",
"#	c #798186",
"$	c #777E82",
"%	c #838C91",
"&	c #889195",
"*	c #767D81",
"=	c #858D91",
"-	c #7E868B",
";	c #80888D",
">	c #7B8387",
",	c #565B5D",
"'	c #686E71",
")	c #656A6C",
"!	c #8D9599",
"~	c #8C9599",
"{	c #8B9498",
"]	c #676D70",
"^	c #616669",
"/	c #656B6F",
"(	c #676D71",
"_	c #62686C",
":	c #525759",
"<	c #82898D",
"[	c #4F5457",
"}	c #848B8F",
"|	c #411916",
"1	c #240F10",
"2	c #000000",
"3	c #903731",
"4	c #2E1413",
"5	c #5F2223",
"6	c #6F2A2B",
"7	c #121315",
"8	c #150706",
"9	c #1A0807",
"0	c #250A08",
"a	c #561C18",
"b	c #301112",
"c	c #201E1D",
"d	c #5D6265",
"e	c #52585A",
"   .                 .             .                 .          ",
"..............++....+++++++++.................++....+++++++++...",
"@@@@@@@#+$%&&@@*@@@@@@@@@@@+@%=@@@@@@@@#+$%&&@@*@@@@@@@@@@@+@%=@",
"########+*--;;;**##########+*###########+*--;;;**##########+*###",
"        + >****##########  .            + >****##########  .    ",
"        +                  .            +                  .    ",
"++++++,,,++++++++'''.....++....+++++++,,,++++++++'''.....++....+",
"%%)###########>!!!!!!!!!~!!!~~{&%%)###########>!!!!!!!!!~!!!~~{&",
"##]############>>>>!!!!###########]############>>>>!!!!#########",
"##) #>>>>>>**** ##############>>##) #>>>>>>**** ##############>>",
"  +              ##########       +              ##########     ",
"  ^                               ^                             ",
"..++++++++....+....,,,,,,,........++++++++....+....,,,,,,,......",
"###############/((((___     ,##################/((((___     ,###",
"############################:###############################:###",
" ######        #############:    ######        #############:   ",
"                    ####    :                       ####    :   ",
"                            :                               :   ",
"............................+++.............................+++.",
"===============.*=========<<<<<.===============.*=========<<<<<.",
"#############==.###############.#############==.###############.",
" ##############.  ###########  . ##############.  ###########  .",
"              #.               .              #.               .",
",,,,,:[[[::+..+.+++++++......+++,,,,,:[[[::+..+.+++++++......+++",
"========.=##<<*========+================.=##<<*========+========",
"########.==###<####==##.################.==###<####==##.########",
"     #  .***** **######. ######      #  .***** **######. ###### ",
"        .      ********.                .      ********.        ",
"..++...........+++....+...........++...........+++....+.........",
"}}}.}}}}}}}}}}}*****/,}}}}}}}}}}}}}.}}}}}}}}}}}*****/,}}}}}}}}}}",
"##*.###########*#####.############*.###########*#####.##########",
"** . ********* ######. ########*** . ********* ######. ########*",
"   .                 .             .                 .          ",
"..............++....+++++++++.................++....+++++++++...",
"@@@@@@@#+$%&&@@*@@@@@@@@@@@+@%=@@@@@@@@#+$%&&@@*@@@@@@@@@@@+@%=@",
"########+*--;;;**##########+*###########+*--;;;**##########+*###",
"        + >****##|||#####  .            + >****##########  .    ",
"        +        112       .            +                  .    ",
"++++++,,,+++++++11132....++....+++++++,,,++++++++'''.....++....+",
"%%)###########>4156|3|!!~!!!~~{&%%)###########>!!!!!!!!!~!!!~~{&",
"##]############1756|3|!###########]############>>>>!!!!#########",
"##) #>>>>>>**|88889030||######>>##) #>>>>>>**** ##############>>",
"  +         111111400||||##       +              ##########     ",
"  ^        abbbb5563333c|         ^                             ",
"..++++++++..bbb65baaaaa0|,........++++++++....+....,,,,,,,......",
"#############18981||0000    ,##################/((((___     ,###",
"##############8418803||#####:###############################:###",
" ######       81111|33|#####:    ######        #############:   ",
"            |18188800300|   :                       ####    :   ",
"           25188855|030032  :                               :   ",
"..........05518858030|00330.+++.............................+++.",
"==========05518858030|00030<<<<.===============.*=========<<<<<.",
"##########02548858030|00330####.#############==.###############.",
" #########0#1888853300|||#0##  . ##############.  ###########  .",
"          0  088890|0000  0    .              #.               .",
",,,,,:[[[:0+.01888000||00.0..+++,,,,,:[[[::+..+.+++++++......+++",
"========.=0#001158553||+000=============.=##<<*========+========",
"########.=0#0#088888000.00##############.==###<####==##.########",
"     #  .*000*|118855b|.00#####      #  .***** **######. ###### ",
"        .     |148855b|.                .      ********.        ",
"..++..........11419333|...........++...........+++....+.........",
"}}}.}}}}}}}}}d8898453000}}}}}}}}}}}.}}}}}}}}}}}*****/,}}}}}}}}}}",
"##*.########|088888800|||#########*.###########*#####.##########",
"** . ******e|0|00||||||||######*** . ********* ######. ########*"};
