/* XPM */
static char * Wall_window_xpm[] = {
"64 64 39 1",
" 	c #6D7478",
".	c #505558",
"+	c #5D6164",
"@	c #878F94",
"#	c #798186",
"$	c #777E82",
"%	c #838C91",
"&	c #889195",
"*	c #767D81",
"=	c #858D91",
"-	c #7E868B",
";	c #80888D",
">	c #7B8387",
",	c #565B5D",
"'	c #686E71",
")	c #656A6C",
"!	c #8D9599",
"~	c #8C9599",
"{	c #8B9498",
"]	c #676D70",
"^	c #616669",
"/	c #656B6F",
"(	c #676D71",
"_	c #62686C",
":	c #525759",
"<	c #82898D",
"[	c #877878",
"}	c #140A0F",
"|	c #4F5457",
"1	c #594F4F",
"2	c #433F45",
"3	c #272225",
"4	c #342E34",
"5	c #514952",
"6	c #4A4A5A",
"7	c #65657A",
"8	c #848B8F",
"9	c #565668",
"0	c #706268",
"   .                 .             .                 .          ",
"..............++....+++++++++.................++....+++++++++...",
"@@@@@@@#+$%&&@@*@@@@@@@@@@@+@%=@@@@@@@@#+$%&&@@*@@@@@@@@@@@+@%=@",
"########+*--;;;**##########+*###########+*--;;;**##########+*###",
"        + >****##########  .            + >****##########  .    ",
"        +                  .            +                  .    ",
"++++++,,,++++++++'''.....++....+++++++,,,++++++++'''.....++....+",
"%%)###########>!!!!!!!!!~!!!~~{&%%)###########>!!!!!!!!!~!!!~~{&",
"##]############>>>>!!!!###########]############>>>>!!!!#########",
"##) #>>>>>>**** ##############>>##) #>>>>>>**** ##############>>",
"  +              ##########       +              ##########     ",
"  ^                               ^                             ",
"..++++++++....+....,,,,,,,........++++++++....+....,,,,,,,......",
"###############/((((___     ,##################/((((___     ,###",
"############################:###############################:###",
" ######        #############:    ######        #############:   ",
"                    ####    :                       ####    :   ",
"                            :                               :   ",
"............................+++.............................+++.",
"===============.*=========<<<<<.===============.*=========<<<<<.",
"#############==.###############.#############==.###############.",
" ##############.  ###########  . ##############.  ###########  .",
"              [[[[[[[[[[[[[[[[[[[[[[[[[[[[[[[[[[[}             .",
",,,,,:|||::+..[[[[[[[[[[[[[[[[[[[[[[[[[[[[[[[[[[[}+++++......+++",
"========.=##<<*122222222222222222222222222222221}======+========",
"########.==###<123444444444444444444444444444321}##==##.########",
"     #  .***** 123552222255552222255552222255321}######. ###### ",
"        .      123533333335533333335533333335321}******.        ",
"..++...........123236736732236736732236736732321}+....+.........",
"888.88888888888123239939932239939932239939932321}***/,8888888888",
"##*.###########123239939932239939932239939932321}####.##########",
"** . ********* 123237937932237937932237937932321}####. ########*",
"   .           123237937932237937935237937932321}    .          ",
"..............+123539939932239939935239939935321}...+++++++++...",
"@@@@@@@#+$%&&@@123523333322223333325223333325321}@@@@@@@@@@+@%=@",
"########+*--;;;123536736732236736735236736735321}##########+*###",
"        + >****123539939932539939935539939935321}########  .    ",
"        +      123537937932537937935537937935321}          .    ",
"++++++,,,++++++123537937935537937932537937935321}'''.....++....+",
"%%)###########>123539939935239939932539939932321}!!!!!!!~!!!~~{&",
"##]############123523333325223333322523333322321}>>!!!!#########",
"##) #>>>>>>****123236736735236736732536736732321}#############>>",
"  +            123239939935239939932539939932321}##########     ",
"  ^            123237937935237937932237937932321}               ",
"..++++++++....+123237937932237937932237937932321}..,,,,,,,......",
"###############123239939932239939932239939932321}(((___     ,###",
"###############123533333332233333332233333335321}###########:###",
" ######        123552222225522222225522222255321}###########:   ",
"              [333333333333333333333333333333333[}  ####    :   ",
"              11100001111111111111111111111100011[}         :   ",
"............................+++.............................+++.",
"===============.*=========<<<<<.===============.*=========<<<<<.",
"#############==.###############.#############==.###############.",
" ##############.  ###########  . ##############.  ###########  .",
"              #.               .              #.               .",
",,,,,:|||::+..+.+++++++......+++,,,,,:|||::+..+.+++++++......+++",
"========.=##<<*========+================.=##<<*========+========",
"########.==###<####==##.################.==###<####==##.########",
"     #  .***** **######. ######      #  .***** **######. ###### ",
"        .      ********.                .      ********.        ",
"..++...........+++....+...........++...........+++....+.........",
"888.88888888888*****/,8888888888888.88888888888*****/,8888888888",
"##*.###########*#####.############*.###########*#####.##########",
"** . ********* ######. ########*** . ********* ######. ########*"};
